<svg id="Capa_1" enable-background="new 0 0 512 512" height="512" viewBox="0 0 512 512" width="512" xmlns="http://www.w3.org/2000/svg"><g><path d="m7.5 369.904c4.143 0 7.5-3.357 7.5-7.5v-207.904h331c4.143 0 7.5-3.357 7.5-7.5s-3.357-7.5-7.5-7.5h-331v-42.5c0-17.921 14.579-32.5 32.5-32.5h13.309c4.143 0 7.5-3.357 7.5-7.5s-3.357-7.5-7.5-7.5h-13.309c-26.191 0-47.5 21.309-47.5 47.5v265.404c0 4.143 3.357 7.5 7.5 7.5z"/><path d="m464.5 49.5h-369.011c-4.143 0-7.5 3.357-7.5 7.5s3.357 7.5 7.5 7.5h369.011c17.921 0 32.5 14.579 32.5 32.5v42.5h-116c-4.143 0-7.5 3.357-7.5 7.5s3.357 7.5 7.5 7.5h116v260.5c0 17.921-14.579 32.5-32.5 32.5h-417c-17.921 0-32.5-14.579-32.5-32.5v-16.937c0-4.143-3.357-7.5-7.5-7.5s-7.5 3.357-7.5 7.5v16.937c0 26.191 21.309 47.5 47.5 47.5h417c26.191 0 47.5-21.309 47.5-47.5v-318c0-26.191-21.309-47.5-47.5-47.5z"/><path d="m30.75 101.75c0 12.406 10.094 22.5 22.5 22.5s22.5-10.094 22.5-22.5-10.094-22.5-22.5-22.5-22.5 10.094-22.5 22.5zm30 0c0 4.136-3.364 7.5-7.5 7.5s-7.5-3.364-7.5-7.5 3.364-7.5 7.5-7.5 7.5 3.364 7.5 7.5z"/><path d="m140 102c0-12.406-10.094-22.5-22.5-22.5s-22.5 10.094-22.5 22.5 10.094 22.5 22.5 22.5 22.5-10.094 22.5-22.5zm-30 0c0-4.136 3.364-7.5 7.5-7.5s7.5 3.364 7.5 7.5-3.364 7.5-7.5 7.5-7.5-3.364-7.5-7.5z"/><path d="m204 102c0-12.406-10.094-22.5-22.5-22.5s-22.5 10.094-22.5 22.5 10.094 22.5 22.5 22.5 22.5-10.094 22.5-22.5zm-30 0c0-4.136 3.364-7.5 7.5-7.5s7.5 3.364 7.5 7.5-3.364 7.5-7.5 7.5-7.5-3.364-7.5-7.5z"/><path d="m459.5 124.5c12.406 0 22.5-10.094 22.5-22.5s-10.094-22.5-22.5-22.5h-213c-12.406 0-22.5 10.094-22.5 22.5s10.094 22.5 22.5 22.5zm-220.5-22.5c0-4.136 3.364-7.5 7.5-7.5h213c4.136 0 7.5 3.364 7.5 7.5s-3.364 7.5-7.5 7.5h-213c-4.136 0-7.5-3.364-7.5-7.5z"/><g><path d="m266.53 218.823-63.59 145.584c-5.121 11.725.252 25.431 11.978 30.555 11.408 5.201 25.719-.414 30.552-11.978l63.59-145.584c5.121-11.725-.252-25.431-11.979-30.555-11.727-5.114-25.431.258-30.551 11.978zm28.783 12.573-63.59 145.583c-1.71 4.088-6.764 6.08-10.802 4.235-4.146-1.812-6.046-6.658-4.235-10.804l63.59-145.584c1.811-4.184 6.754-6.029 10.802-4.234 4.147 1.811 6.046 6.659 4.235 10.804z"/><path d="m177.007 234.633c-4.383-4.382-10.21-6.796-16.408-6.796-6.199 0-12.026 2.414-16.409 6.796l-58.107 58.107c-4.382 4.383-6.796 10.21-6.796 16.408 0 6.199 2.414 12.026 6.796 16.409l58.892 58.892c8.638 9.001 24.18 9.001 32.817 0 9.001-8.638 9-24.18 0-32.817l-42.484-42.483 41.699-41.698c9.046-9.049 9.046-23.769 0-32.818zm-10.608 22.211-47.002 47.001c-2.905 2.794-2.904 7.814 0 10.607l47.787 47.787c3.183 3.052 3.183 8.55 0 11.603-3.052 3.184-8.551 3.183-11.603 0l-58.891-58.892c-3.183-3.052-3.183-8.55 0-11.603l58.106-58.107c3.052-3.183 8.55-3.183 11.603-.001 3.2 3.199 3.2 8.407 0 11.605z"/><path d="m391.056 339.204c-2.929 2.93-2.929 7.678 0 10.607 2.93 2.928 7.678 2.928 10.607 0l24.254-24.254c4.382-4.383 6.796-10.21 6.796-16.409 0-6.198-2.414-12.025-6.796-16.408l-58.106-58.107c-4.383-4.382-10.21-6.796-16.409-6.796-6.198 0-12.025 2.414-16.408 6.797-9.046 9.048-9.046 23.769 0 32.817l41.699 41.697-42.484 42.483c-4.382 4.383-6.796 10.21-6.796 16.409 0 6.198 2.414 12.025 6.796 16.408 4.383 4.382 10.21 6.796 16.408 6.796s12.026-2.414 16.409-6.796l9.636-9.636c2.929-2.93 2.929-7.678 0-10.607-2.93-2.928-7.678-2.928-10.607 0l-9.636 9.636c-3.052 3.183-8.55 3.183-11.603 0-3.184-3.052-3.183-8.551 0-11.603l47.787-47.787c1.406-1.407 2.196-3.314 2.196-5.304s-.79-3.896-2.196-5.304l-47.002-47c-3.199-3.199-3.199-8.406 0-11.604 3.052-3.184 8.551-3.183 11.603 0l58.106 58.107c1.55 1.549 2.403 3.609 2.403 5.801s-.854 4.253-2.403 5.802z"/></g></g></svg>