<svg id="Capa_1" enable-background="new 0 0 512 512" height="512" viewBox="0 0 512 512" width="512" xmlns="http://www.w3.org/2000/svg"><g><path d="m504.5 147v268c0 22.09-17.91 40-40 40h-417c-22.09 0-40-17.91-40-40v-268z" fill="#f5f5f5"/><path d="m504.5 167v-20l-248.5-10-248.5 10v20 248c0 22.09 17.91 40 40 40h20c-22.09 0-40-17.91-40-40v-248z" fill="#e6e6e6"/><path d="m504.5 97v50h-497v-50c0-22.09 17.91-40 40-40h417c22.09 0 40 17.91 40 40z" fill="#50758d"/><g fill="#2b597f"><path d="m482 102c0-12.406-10.093-22.5-22.5-22.5h-213c-6.385 0-12.152 2.677-16.251 6.963-4.767 4.757-2.529 2.519-7.286 7.286-4.286 4.099-6.963 9.866-6.963 16.251 0 12.406 10.093 22.5 22.5 22.5h213c6.385 0 12.152-2.677 16.251-6.963 4.767-4.757 2.529-2.519 7.286-7.286 4.286-4.099 6.963-9.866 6.963-16.251z"/><path d="m75.75 101.75c0-12.406-10.093-22.5-22.5-22.5-6.385 0-12.152 2.677-16.251 6.963-4.767 4.757-2.529 2.519-7.286 7.286-4.286 4.099-6.963 9.866-6.963 16.251 0 12.406 10.093 22.5 22.5 22.5 6.385 0 12.152-2.677 16.251-6.963 4.767-4.757 2.529-2.519 7.286-7.286 4.286-4.099 6.963-9.866 6.963-16.251z"/><path d="m140 101.75c0-12.406-10.093-22.5-22.5-22.5-6.385 0-12.152 2.677-16.251 6.963-4.767 4.757-2.529 2.519-7.286 7.286-4.286 4.099-6.963 9.866-6.963 16.251 0 12.406 10.093 22.5 22.5 22.5 6.385 0 12.152-2.677 16.251-6.963 4.767-4.757 2.529-2.519 7.286-7.286 4.286-4.099 6.963-9.866 6.963-16.251z"/><path d="m204 101.75c0-12.406-10.093-22.5-22.5-22.5-6.385 0-12.152 2.677-16.251 6.963-4.767 4.757-2.529 2.519-7.286 7.286-4.286 4.099-6.963 9.866-6.963 16.251 0 12.406 10.093 22.5 22.5 22.5 6.385 0 12.152-2.677 16.251-6.963 4.767-4.757 2.529-2.519 7.286-7.286 4.286-4.099 6.963-9.866 6.963-16.251z"/></g><path d="m53.25 124.25c-12.407 0-22.5-10.094-22.5-22.5s10.093-22.5 22.5-22.5 22.5 10.094 22.5 22.5-10.093 22.5-22.5 22.5z" fill="#fd646f"/><path d="m117.5 124.5c-12.407 0-22.5-10.094-22.5-22.5s10.093-22.5 22.5-22.5 22.5 10.094 22.5 22.5-10.093 22.5-22.5 22.5z" fill="#ffc682"/><path d="m181.5 124.5c-12.407 0-22.5-10.094-22.5-22.5s10.093-22.5 22.5-22.5 22.5 10.094 22.5 22.5-10.093 22.5-22.5 22.5z" fill="#93ddb7"/><path d="m459.5 124.5h-213c-12.407 0-22.5-10.094-22.5-22.5s10.093-22.5 22.5-22.5h213c12.407 0 22.5 10.094 22.5 22.5s-10.093 22.5-22.5 22.5z" fill="#f5f5f5"/><g fill="#50758d"><path d="m224.197 389.404c-2.099 0-4.231-.423-6.278-1.317-7.948-3.472-11.577-12.729-8.105-20.678l63.589-145.584c3.472-7.947 12.728-11.574 20.678-8.105 7.948 3.472 11.577 12.729 8.105 20.678l-63.589 145.584c-2.578 5.902-8.346 9.422-14.4 9.422z"/><path d="m161.383 383.745c-4.019 0-8.039-1.533-11.105-4.599l-58.892-58.892c-6.132-6.133-6.132-16.077 0-22.21l58.107-58.107c6.133-6.133 16.077-6.133 22.21 0 6.132 6.133 6.132 16.077 0 22.21l-47.002 47.002 47.788 47.787c6.132 6.133 6.132 16.077 0 22.21-3.067 3.066-7.087 4.599-11.106 4.599z"/><path d="m350.617 383.745c4.019 0 8.039-1.533 11.105-4.599l58.892-58.892c6.132-6.133 6.132-16.077 0-22.21l-58.107-58.107c-6.133-6.133-16.077-6.133-22.21 0-6.132 6.133-6.132 16.077 0 22.21l47.002 47.002-47.788 47.787c-6.132 6.133-6.132 16.077 0 22.21 3.067 3.066 7.087 4.599 11.106 4.599z"/></g></g><g><path d="m7.5 369.904c4.143 0 7.5-3.357 7.5-7.5v-207.904h331c4.143 0 7.5-3.357 7.5-7.5s-3.357-7.5-7.5-7.5h-331v-42.5c0-17.921 14.579-32.5 32.5-32.5h13.309c4.143 0 7.5-3.357 7.5-7.5s-3.357-7.5-7.5-7.5h-13.309c-26.191 0-47.5 21.309-47.5 47.5v265.404c0 4.143 3.357 7.5 7.5 7.5z"/><path d="m464.5 49.5h-369.011c-4.143 0-7.5 3.357-7.5 7.5s3.357 7.5 7.5 7.5h369.011c17.921 0 32.5 14.579 32.5 32.5v42.5h-116c-4.143 0-7.5 3.357-7.5 7.5s3.357 7.5 7.5 7.5h116v260.5c0 17.921-14.579 32.5-32.5 32.5h-417c-17.921 0-32.5-14.579-32.5-32.5v-16.937c0-4.143-3.357-7.5-7.5-7.5s-7.5 3.357-7.5 7.5v16.937c0 26.191 21.309 47.5 47.5 47.5h417c26.191 0 47.5-21.309 47.5-47.5v-318c0-26.191-21.309-47.5-47.5-47.5z"/><path d="m30.75 101.75c0 12.406 10.094 22.5 22.5 22.5s22.5-10.094 22.5-22.5-10.094-22.5-22.5-22.5-22.5 10.094-22.5 22.5zm30 0c0 4.136-3.364 7.5-7.5 7.5s-7.5-3.364-7.5-7.5 3.364-7.5 7.5-7.5 7.5 3.364 7.5 7.5z"/><path d="m140 102c0-12.406-10.094-22.5-22.5-22.5s-22.5 10.094-22.5 22.5 10.094 22.5 22.5 22.5 22.5-10.094 22.5-22.5zm-30 0c0-4.136 3.364-7.5 7.5-7.5s7.5 3.364 7.5 7.5-3.364 7.5-7.5 7.5-7.5-3.364-7.5-7.5z"/><path d="m204 102c0-12.406-10.094-22.5-22.5-22.5s-22.5 10.094-22.5 22.5 10.094 22.5 22.5 22.5 22.5-10.094 22.5-22.5zm-30 0c0-4.136 3.364-7.5 7.5-7.5s7.5 3.364 7.5 7.5-3.364 7.5-7.5 7.5-7.5-3.364-7.5-7.5z"/><path d="m459.5 124.5c12.406 0 22.5-10.094 22.5-22.5s-10.094-22.5-22.5-22.5h-213c-12.406 0-22.5 10.094-22.5 22.5s10.094 22.5 22.5 22.5zm-220.5-22.5c0-4.136 3.364-7.5 7.5-7.5h213c4.136 0 7.5 3.364 7.5 7.5s-3.364 7.5-7.5 7.5h-213c-4.136 0-7.5-3.364-7.5-7.5z"/><g><path d="m266.53 218.823-63.59 145.584c-5.121 11.725.252 25.431 11.978 30.555 11.408 5.201 25.719-.414 30.552-11.978l63.59-145.584c5.121-11.725-.252-25.431-11.979-30.555-11.727-5.114-25.431.258-30.551 11.978zm28.783 12.573-63.59 145.583c-1.71 4.088-6.764 6.08-10.802 4.235-4.146-1.812-6.046-6.658-4.235-10.804l63.59-145.584c1.811-4.184 6.754-6.029 10.802-4.234 4.147 1.811 6.046 6.659 4.235 10.804z"/><path d="m177.007 234.633c-4.383-4.382-10.21-6.796-16.408-6.796-6.199 0-12.026 2.414-16.409 6.796l-58.107 58.107c-4.382 4.383-6.796 10.21-6.796 16.408 0 6.199 2.414 12.026 6.796 16.409l58.892 58.892c8.638 9.001 24.18 9.001 32.817 0 9.001-8.638 9-24.18 0-32.817l-42.484-42.483 41.699-41.698c9.046-9.049 9.046-23.769 0-32.818zm-10.608 22.211-47.002 47.001c-2.905 2.794-2.904 7.814 0 10.607l47.787 47.787c3.183 3.052 3.183 8.55 0 11.603-3.052 3.184-8.551 3.183-11.603 0l-58.891-58.892c-3.183-3.052-3.183-8.55 0-11.603l58.106-58.107c3.052-3.183 8.55-3.183 11.603-.001 3.2 3.199 3.2 8.407 0 11.605z"/><path d="m391.056 339.204c-2.929 2.93-2.929 7.678 0 10.607 2.93 2.928 7.678 2.928 10.607 0l24.254-24.254c4.382-4.383 6.796-10.21 6.796-16.409 0-6.198-2.414-12.025-6.796-16.408l-58.106-58.107c-4.383-4.382-10.21-6.796-16.409-6.796-6.198 0-12.025 2.414-16.408 6.797-9.046 9.048-9.046 23.769 0 32.817l41.699 41.697-42.484 42.483c-4.382 4.383-6.796 10.21-6.796 16.409 0 6.198 2.414 12.025 6.796 16.408 4.383 4.382 10.21 6.796 16.408 6.796s12.026-2.414 16.409-6.796l9.636-9.636c2.929-2.93 2.929-7.678 0-10.607-2.93-2.928-7.678-2.928-10.607 0l-9.636 9.636c-3.052 3.183-8.55 3.183-11.603 0-3.184-3.052-3.183-8.551 0-11.603l47.787-47.787c1.406-1.407 2.196-3.314 2.196-5.304s-.79-3.896-2.196-5.304l-47.002-47c-3.199-3.199-3.199-8.406 0-11.604 3.052-3.184 8.551-3.183 11.603 0l58.106 58.107c1.55 1.549 2.403 3.609 2.403 5.801s-.854 4.253-2.403 5.802z"/></g></g></svg>